<?xml version="1.0" encoding="utf-8"?>
<!-- Svg Vector Icons : http://www.onlinewebfonts.com/icon -->
<!DOCTYPE svg PUBLIC "-//W3C//DTD SVG 1.1//EN" "http://www.w3.org/Graphics/SVG/1.1/DTD/svg11.dtd">
<svg version="1.1" xmlns="http://www.w3.org/2000/svg" xmlns:xlink="http://www.w3.org/1999/xlink" x="0px" y="0px" viewBox="0 0 1000 1000" enable-background="new 0 0 1000 1000" xml:space="preserve" width="40" height="40">
<metadata> Svg Vector Icons : http://www.onlinewebfonts.com/icon </metadata>
<g><path d="M500.5,290.2c-51,0-94.8,31-114.6,75.5h229.3C595.3,321.2,551.5,290.2,500.5,290.2z" fill="#4943da"/><path  fill="#4943da" d="M500,10C229.4,10,10,229.4,10,500c0,270.6,219.4,490,490,490c270.6,0,490-219.4,490-490C990,229.4,770.6,10,500,10z M242.4,409.4c0-24,19.3-43.7,42.8-43.7h51.6c22-70.9,87-122.3,163.7-122.3c76.8,0,141.7,51.4,163.8,122.3h51.1c23.5,0,42.8,19.7,42.8,43.7v24.4c0,10.9-3.2,14-14.3,14h-82.3c-10.5,0-14.1-1.8-14.1-12.6v-3.8c0-12-9.6-21.8-21.4-21.8h-16.6c-11.8,0-21.4,9.8-21.4,21.8v4.9c0,10.1-1.1,11.5-12,11.5H426.9c-11.8,0-14.8-1.2-14.8-13.2v-3.2c0-12-9.6-21.8-21.4-21.8h-17.1c-11.8,0-21.4,9.8-21.4,21.8v3c0,12-2.9,13.3-15.3,13.4h-77.7c-13.2,0-16.8-3.1-16.8-15.5V409.4z M634,452.2v26.3c0,11.8-7.2,21.4-16,21.4c-8.8,0-16-9.6-16-21.4v-26.3c0-11.8,7.2-21.4,16-21.4S634,440.4,634,452.2z M398.5,452.2v26.3c0,11.8-7.2,21.4-16,21.4c-8.8,0-16-9.6-16-21.4v-26.3c0-11.8,7.2-21.4,16-21.4C391.3,430.8,398.5,440.4,398.5,452.2z M758.1,715.3c0,24.1-19.3,43.7-42.8,43.7H285.2c-23.5,0-42.8-19.7-42.8-43.7V496.9c0-13.1,3.4-16.4,16.4-16.4h78.7c11.6,0,14.8,1.9,14.8,14.6v1.8c0,12,9.6,21.9,21.4,21.9h17.1c11.8,0,21.4-9.9,21.4-21.9v-2.8c0-10.9,3.2-13.6,15.3-13.6h148.3c9.5,0,12.2,2.6,12.2,12v4.3c0,12,9.6,21.9,21.4,21.9h16.7c11.8,0,21.4-9.9,21.4-21.9v-4.6c0-9.7,3.1-11.7,14.6-11.8H745c9.1,0,13.2,3.3,13.2,13.1L758.1,715.3L758.1,715.3z"/></g>
</svg>